<?xml version="1.0" standalone="no"?>
<!DOCTYPE svg PUBLIC "-//W3C//DTD SVG 20010904//EN"
 "http://www.w3.org/TR/2001/REC-SVG-20010904/DTD/svg10.dtd">
<svg version="1.0" xmlns="http://www.w3.org/2000/svg"
 width="214.000000pt" height="300.000000pt" viewBox="0 0 214.000000 300.000000"
 preserveAspectRatio="xMidYMid meet">
<metadata>
Created by potrace 1.10, written by Peter Selinger 2001-2011
</metadata>
<g transform="translate(0.000000,300.000000) scale(0.100000,-0.100000)"
fill="#000000" stroke="none">
<path d="M963 2990 c-418 -44 -795 -480 -917 -1059 -51 -240 -53 -609 -5 -845
121 -592 496 -1027 930 -1076 399 -45 757 188 980 638 143 290 201 621 178
1006 -42 710 -456 1283 -966 1336 -97 11 -97 11 -200 0z m283 -50 c500 -127
854 -725 854 -1440 0 -638 -283 -1190 -712 -1389 -591 -275 -1219 256 -1333
1125 -83 630 144 1280 547 1567 196 140 434 190 644 137z"/>
<path d="M1046 2881 c-7 -11 18 -33 27 -24 4 3 7 12 7 20 0 15 -26 18 -34 4z"/>
<path d="M1033 2826 c13 -11 17 -29 17 -90 0 -44 -4 -76 -10 -76 -5 0 -10 -4
-10 -10 0 -5 19 -10 43 -10 37 1 40 2 25 14 -14 11 -18 29 -18 90 0 44 4 76
10 76 6 0 10 5 10 10 0 6 -19 10 -42 10 -38 -1 -41 -2 -25 -14z"/>
<path d="M903 2823 c-17 -6 -17 -23 0 -23 7 0 18 -19 24 -42 7 -24 15 -52 18
-63 4 -11 -20 8 -52 43 -57 62 -59 63 -88 51 -21 -8 -25 -13 -14 -16 20 -5 62
-143 52 -169 -5 -14 -2 -16 18 -11 13 4 27 7 32 7 13 0 7 20 -6 20 -11 0 -47
89 -47 116 0 5 26 -19 58 -53 41 -44 62 -60 73 -55 14 6 13 16 -11 95 -15 48
-24 87 -19 87 5 0 9 5 9 10 0 10 -26 12 -47 3z"/>
<path d="M1196 2819 c8 -10 4 -34 -14 -91 -13 -43 -28 -76 -32 -73 -5 3 -11 1
-14 -4 -3 -5 8 -14 26 -20 39 -14 37 -14 36 7 -2 26 11 72 21 72 11 0 23 -63
16 -82 -4 -11 4 -19 26 -27 32 -11 54 -6 32 7 -6 4 -18 33 -26 64 -15 57 -15
57 9 73 13 8 36 20 52 26 25 10 26 12 7 19 -31 13 -55 12 -50 -2 3 -7 -11 -24
-31 -36 l-37 -24 7 29 c4 15 14 34 23 40 21 16 16 21 -28 30 -28 5 -32 4 -23
-8z"/>
<path d="M669 2710 c-17 -14 -20 -19 -9 -20 12 0 14 -10 11 -47 l-3 -46 -19
24 c-10 13 -16 32 -13 42 7 24 -6 21 -41 -8 -26 -21 -28 -24 -10 -25 28 -1
118 -123 102 -139 -19 -19 12 -13 39 8 15 11 20 22 14 26 -5 3 -10 3 -10 -1 0
-4 -9 5 -20 19 -19 23 -26 47 -15 47 2 0 20 -7 39 -16 23 -12 32 -22 28 -32
-6 -17 9 -11 41 16 18 16 24 38 7 27 -7 -4 -99 27 -118 41 -2 1 1 25 6 53 10
56 6 61 -29 31z"/>
<path d="M1514 2664 c4 -12 -11 -35 -49 -75 -30 -31 -55 -62 -55 -67 0 -20 52
-72 72 -72 12 0 43 23 72 52 28 29 56 53 61 54 6 1 14 2 19 3 11 1 -23 41 -36
41 -4 0 -8 -6 -8 -12 0 -14 -97 -118 -109 -118 -12 0 -31 23 -31 38 0 22 91
121 106 115 21 -8 17 3 -11 32 -30 29 -40 32 -31 9z"/>
<path d="M1564 2669 c-10 -17 13 -36 27 -22 12 12 4 33 -11 33 -5 0 -12 -5
-16 -11z"/>
<path d="M472 2524 c-46 -59 -50 -69 -26 -60 21 8 135 -90 127 -110 -12 -32
17 -11 57 41 41 53 42 56 24 70 -32 24 -50 15 -31 -16 9 -15 8 -22 -5 -35 -15
-15 -18 -15 -42 2 -31 23 -35 48 -6 39 27 -9 26 12 -2 35 -25 20 -46 16 -28
-5 18 -21 -6 -28 -35 -9 -30 19 -31 26 -7 47 13 12 21 14 29 6 11 -11 33 -5
33 9 0 4 -11 14 -23 24 -23 16 -24 15 -65 -38z"/>
<path d="M937 2516 c-230 -97 -383 -336 -458 -717 -32 -162 -32 -434 0 -598
75 -385 240 -638 468 -721 141 -51 305 -6 433 121 137 135 228 328 281 600 32
163 32 435 0 598 -70 355 -214 597 -418 698 -66 32 -85 37 -161 40 -75 3 -95
0 -145 -21z m285 -49 c188 -93 335 -335 400 -662 32 -158 32 -452 0 -610 -65
-327 -212 -569 -400 -662 -50 -25 -68 -28 -152 -28 -84 0 -102 3 -153 28 -188
93 -333 334 -399 662 -32 159 -32 451 0 610 70 348 227 595 431 677 72 28 199
22 273 -15z"/>
<path d="M1165 2158 c-154 -138 -254 -340 -255 -515 0 -35 -4 -63 -10 -63 -5
0 -10 11 -10 24 0 13 -10 36 -22 51 -20 25 -25 27 -75 22 -51 -5 -53 -5 -53
19 0 29 -5 30 -37 4 -19 -15 -29 -17 -39 -9 -10 8 -23 3 -54 -22 -36 -29 -50
-49 -34 -49 3 0 21 12 40 26 19 15 37 24 40 22 3 -3 -7 -15 -22 -27 -34 -27
-25 -39 11 -15 37 24 50 8 30 -39 -8 -20 -15 -45 -15 -56 0 -62 57 -104 113
-83 39 15 49 5 19 -17 -67 -47 -72 -55 -92 -139 -20 -84 -19 -102 4 -102 7 0
17 29 25 75 10 60 19 84 43 110 16 19 37 35 47 35 12 -1 9 -7 -12 -26 -23 -19
-34 -45 -53 -121 -17 -72 -21 -100 -13 -110 6 -7 14 -13 18 -13 4 0 18 48 31
106 21 89 29 109 51 125 15 10 34 16 43 13 21 -8 20 -17 -5 -32 -16 -11 -19
-19 -14 -44 4 -17 10 -63 14 -102 5 -57 9 -71 24 -74 14 -3 17 1 13 20 -3 13
-8 60 -11 105 -6 80 -6 82 20 99 32 21 44 11 20 -16 -16 -18 -18 -35 -16 -118
3 -90 12 -119 33 -106 4 3 5 48 1 102 l-5 97 30 29 c44 41 57 25 28 -32 -23
-46 -24 -51 -11 -107 8 -33 18 -120 23 -193 8 -129 9 -134 37 -158 47 -40 61
-28 24 20 -18 22 -23 48 -30 149 -4 67 -11 156 -15 197 -6 65 -4 77 11 90 17
14 18 12 12 -28 -3 -24 1 -82 9 -130 8 -48 14 -121 14 -163 0 -61 5 -88 25
-132 14 -30 32 -58 41 -61 26 -10 26 21 0 61 -20 30 -27 57 -32 122 l-7 84 26
-19 c15 -10 27 -28 27 -40 0 -11 9 -29 19 -38 11 -10 17 -25 14 -36 -3 -10 4
-27 17 -40 19 -19 30 -22 81 -18 72 5 101 28 97 74 -1 19 4 38 15 48 20 20 22
57 5 74 -9 9 -7 17 10 35 28 29 29 80 3 106 -17 17 -18 24 -8 50 14 38 -2 75
-43 99 -22 13 -28 22 -24 38 8 32 -34 75 -82 83 l-39 6 55 31 c98 56 151 130
185 259 34 132 0 328 -61 352 -17 6 -77 -23 -101 -49 -9 -10 -19 -18 -23 -18
-5 0 -15 31 -25 69 -9 38 -23 72 -30 75 -7 2 -38 -18 -70 -46z m79 -52 l16
-64 -63 -66 c-97 -102 -173 -244 -185 -344 -6 -50 -10 -54 -51 -46 -37 8 -39
22 -16 140 16 83 63 193 116 271 35 51 147 173 159 173 4 0 15 -29 24 -64z
m180 -28 c24 -39 39 -143 33 -230 -7 -87 -36 -166 -83 -221 -36 -43 -119 -106
-173 -129 -49 -22 -149 -39 -157 -27 -3 5 7 43 21 85 48 144 146 248 289 309
79 34 81 43 3 16 -152 -53 -262 -156 -314 -296 -27 -73 -29 -46 -4 51 26 101
64 178 128 262 54 70 204 202 230 202 7 0 19 -10 27 -22z m-571 -450 c54 -72
-73 -186 -137 -122 -23 22 -20 76 5 108 41 52 99 58 132 14z m137 -123 c5 -49
6 -50 47 -63 36 -12 53 -11 115 1 40 9 76 13 81 10 15 -9 -26 -44 -85 -74 -65
-33 -78 -35 -78 -14 0 8 -7 15 -15 15 -9 0 -18 6 -21 14 -4 11 -18 13 -60 9
-46 -5 -54 -3 -54 11 0 13 -8 16 -42 14 -35 -3 -43 0 -46 17 -6 27 27 83 57
101 15 7 42 13 61 11 34 -2 35 -3 40 -52z m324 -87 c24 -39 -84 -131 -156
-132 -37 -1 -43 2 -46 20 -2 17 9 28 50 52 29 16 64 42 78 56 27 29 57 31 74
4z m69 -110 c19 -30 -7 -64 -75 -97 -113 -56 -195 -51 -186 11 3 23 7 25 94
47 22 6 56 22 75 35 38 28 77 29 92 4z m17 -122 c38 -46 -52 -113 -166 -123
-68 -6 -91 9 -80 51 5 19 14 25 53 30 27 3 71 17 98 30 59 29 78 31 95 12z
m-19 -132 c28 -34 -33 -72 -117 -73 -45 -1 -68 16 -58 43 4 10 19 16 43 17 20
0 52 6 71 13 47 18 46 18 61 0z m-15 -105 c9 -15 -8 -29 -48 -38 -39 -9 -82 3
-76 21 4 11 26 16 105 26 6 1 15 -3 19 -9z"/>
<path d="M758 1619 c-43 -25 7 -93 51 -69 27 14 28 56 2 70 -24 12 -31 12 -53
-1z"/>
<path d="M1662 2508 c6 -16 -122 -107 -139 -101 -17 7 -16 -7 1 -29 16 -21 26
-23 26 -5 0 7 23 30 50 50 28 21 50 34 50 31 0 -4 -18 -38 -39 -75 -32 -54
-37 -71 -28 -83 11 -14 21 -9 82 34 43 30 77 47 88 44 21 -7 21 0 1 31 -18 27
-40 34 -31 11 4 -10 -12 -27 -44 -50 -27 -20 -51 -36 -54 -36 -2 0 14 32 37
71 35 61 39 74 29 95 -11 24 -36 35 -29 12z"/>
<path d="M365 2363 c-35 -63 -36 -68 -19 -80 22 -16 44 -17 44 -2 0 7 -8 18
-17 25 -12 8 -15 16 -8 23 7 6 33 -4 78 -31 54 -32 66 -44 62 -59 -12 -35 15
-19 35 22 20 38 20 71 1 40 -10 -16 -8 -16 -89 29 -64 36 -76 57 -27 52 31 -4
31 14 -2 35 -20 13 -23 10 -58 -54z"/>
<path d="M1780 2323 c-1 -20 -122 -80 -152 -76 -22 3 -22 4 -2 -35 15 -30 39
-46 28 -19 -7 18 140 89 155 74 15 -15 14 -6 -4 37 -17 39 -25 46 -25 19z"/>
<path d="M1820 2228 c0 -7 -34 -37 -74 -67 -99 -73 -94 -82 45 -79 60 2 109 4
109 5 0 1 -5 14 -12 28 -11 25 -34 36 -25 11 4 -10 -11 -15 -61 -19 -36 -4
-67 -5 -69 -3 -2 2 21 22 51 44 35 27 56 37 59 29 9 -25 19 3 10 29 -10 29
-33 45 -33 22z"/>
<path d="M393 2128 c-3 -7 -2 -13 4 -15 29 -10 41 -29 33 -50 l-9 -22 -76 26
c-62 22 -75 30 -72 45 3 11 0 18 -9 18 -8 0 -14 -10 -14 -22 0 -13 -4 -30 -9
-38 -6 -8 -7 -18 -4 -23 3 -5 9 -4 13 3 11 18 160 -36 160 -58 0 -26 16 -1 34
53 22 67 22 66 -13 81 -23 9 -32 10 -38 2z"/>
<path d="M1890 2036 c0 -17 -129 -51 -159 -41 -12 3 -21 5 -21 3 3 -24 39
-132 44 -130 3 1 15 2 26 2 27 0 25 28 -2 32 -23 3 -37 34 -21 48 4 4 20 10
36 14 20 5 27 3 27 -9 0 -8 -4 -15 -10 -15 -5 0 -10 -4 -10 -10 0 -11 30 -13
54 -4 20 8 21 24 1 24 -26 0 -16 27 12 33 35 7 43 2 43 -29 0 -15 -6 -24 -15
-24 -8 0 -15 -7 -15 -16 0 -13 6 -15 27 -9 16 4 29 8 31 10 6 6 -31 135 -39
135 -5 0 -9 -6 -9 -14z"/>
<path d="M217 1999 c-11 -42 -9 -50 11 -39 12 8 35 6 82 -7 57 -16 65 -21 68
-44 2 -17 -3 -29 -13 -33 -25 -9 -145 24 -145 40 0 22 -17 16 -24 -8 -10 -41
-8 -62 7 -50 10 8 28 7 68 -3 88 -24 108 -21 125 20 24 59 2 84 -95 104 -30 6
-59 19 -66 28 -11 14 -13 13 -18 -8z"/>
<path d="M1935 1861 c3 -6 -9 -13 -27 -16 -18 -3 -55 -10 -83 -14 -30 -6 -51
-6 -53 0 -9 24 -21 5 -15 -23 7 -40 12 -46 22 -30 4 7 25 15 47 19 39 6 39 6
21 -15 -10 -11 -32 -26 -48 -32 -20 -9 -29 -19 -29 -36 0 -23 14 -33 22 -16 2
4 17 18 35 30 30 21 34 22 56 7 45 -29 93 7 82 61 -3 13 -7 35 -10 49 -3 14
-10 25 -16 25 -6 0 -8 -4 -4 -9z m3 -88 c-15 -18 -55 -16 -62 3 -11 27 -7 33
27 36 35 3 53 -17 35 -39z"/>
<path d="M196 1787 c-11 -8 -22 -35 -27 -67 -9 -55 -5 -75 10 -51 7 11 24 11
86 3 43 -6 81 -16 85 -22 11 -18 20 14 20 70 0 39 -4 52 -19 60 -28 15 -61 12
-67 -5 -5 -13 -10 -12 -31 5 -30 24 -34 24 -57 7z m52 -39 c21 -21 13 -38 -17
-38 -33 0 -46 13 -37 35 7 18 37 20 54 3z m100 -25 c3 -20 -1 -23 -31 -23 -40
0 -46 5 -40 31 8 30 67 23 71 -8z"/>
<path d="M1792 1658 c-19 -19 -15 -82 7 -102 28 -26 62 -16 88 24 34 53 42 60
58 54 22 -9 18 -42 -5 -49 -25 -8 -26 -35 -2 -35 27 0 42 20 42 56 0 38 -22
64 -54 64 -25 0 -46 -20 -64 -62 -13 -31 -56 -39 -66 -13 -5 15 18 45 35 45 5
0 9 7 9 15 0 18 -31 20 -48 3z"/>
<path d="M160 1599 c0 -26 2 -29 14 -20 9 7 38 11 73 9 l58 -4 -72 -33 c-57
-27 -72 -39 -76 -60 -6 -33 2 -46 16 -28 9 10 31 13 90 9 42 -2 77 -8 77 -13
0 -5 5 -9 10 -9 6 0 10 14 10 30 0 29 -9 38 -23 24 -9 -9 -127 -14 -127 -6 0
4 33 21 73 37 55 24 73 36 75 53 3 21 1 22 -87 22 -54 0 -91 4 -91 10 0 6 -4
10 -10 10 -5 0 -10 -14 -10 -31z"/>
<path d="M1780 1480 c0 -22 5 -40 10 -40 6 0 10 5 10 10 0 15 167 13 173 -2 3
-7 5 7 5 32 0 25 -2 39 -5 33 -6 -16 -173 -18 -173 -3 0 6 -4 10 -10 10 -5 0
-10 -18 -10 -40z"/>
<path d="M310 1420 c-19 -10 -61 -27 -92 -37 -89 -28 -80 -47 37 -74 52 -12
95 -25 95 -30 0 -5 5 -9 10 -9 6 0 10 14 10 30 0 28 -14 42 -22 20 -6 -19 -46
2 -51 26 -6 31 26 52 49 33 12 -10 14 -6 14 25 0 40 -1 41 -50 16z m-30 -74
c0 -20 -4 -23 -22 -19 -56 12 -52 21 20 42 1 1 2 -10 2 -23z"/>
<path d="M1920 1405 c0 -8 9 -15 20 -15 11 0 20 -7 20 -15 0 -17 -35 -19 -114
-9 -29 4 -46 12 -46 20 0 8 -4 14 -10 14 -5 0 -10 -8 -10 -19 0 -10 -3 -33 -6
-50 -4 -20 -3 -31 5 -31 6 0 11 9 11 20 0 17 5 19 53 14 95 -9 118 -15 114
-27 -2 -7 -13 -13 -25 -15 -33 -5 -27 -32 7 -32 27 0 29 3 35 53 11 99 10 107
-24 107 -20 0 -30 -5 -30 -15z"/>
<path d="M1767 1263 c-9 -16 -18 -133 -10 -133 4 0 18 -3 31 -6 16 -5 22 -2
22 9 0 8 -9 17 -20 20 -21 5 -25 23 -11 46 11 17 71 5 71 -15 0 -8 -5 -13 -11
-11 -6 1 -13 -3 -16 -9 -5 -15 56 -24 64 -10 4 5 1 12 -5 14 -7 2 -12 9 -12
16 0 8 12 11 36 8 31 -4 35 -7 30 -26 -3 -11 -6 -24 -6 -28 0 -5 -9 -8 -20 -8
-11 0 -20 -7 -20 -15 0 -10 10 -15 29 -15 28 0 29 2 39 68 10 68 8 87 -7 63
-7 -11 -21 -11 -82 -1 -41 7 -79 19 -86 27 -6 8 -13 11 -16 6z"/>
<path d="M184 1232 c-9 -5 -9 -24 1 -75 7 -37 14 -70 16 -72 2 -2 16 -1 32 2
33 6 38 36 5 31 -14 -2 -24 3 -26 13 -2 13 9 18 49 23 28 4 65 10 80 13 22 4
29 2 29 -11 0 -9 5 -16 11 -16 8 0 10 13 5 38 -3 20 -6 43 -6 50 0 6 -4 12
-10 12 -5 0 -10 -8 -10 -18 0 -14 -14 -20 -70 -30 -39 -7 -75 -12 -80 -12 -19
0 -10 28 11 33 12 3 18 10 14 16 -7 13 -35 14 -51 3z"/>
<path d="M340 1077 c-13 -7 -29 -26 -34 -42 -13 -46 -22 -60 -40 -63 -23 -5
-33 28 -13 43 18 13 23 35 8 35 -28 0 -41 -14 -41 -44 1 -43 21 -66 58 -66 35
0 43 9 57 65 9 32 16 41 37 43 35 4 48 -28 19 -47 -12 -7 -21 -20 -21 -27 0
-22 28 -16 45 9 12 19 13 30 4 56 -6 17 -19 36 -29 41 -23 12 -20 12 -50 -3z"/>
<path d="M1737 1072 c-24 -26 -22 -88 2 -102 34 -17 61 -11 90 21 22 23 34 29
50 24 32 -10 27 -43 -6 -47 -33 -4 -38 -32 -6 -36 40 -6 73 80 41 106 -33 26
-57 23 -95 -11 -38 -33 -67 -38 -77 -12 -6 18 22 48 36 39 12 -7 29 16 22 28
-9 14 -40 9 -57 -10z"/>
<path d="M428 939 c-5 -16 -147 -69 -154 -58 -3 5 -9 9 -14 9 -5 0 -1 -19 8
-41 12 -31 17 -37 22 -24 8 23 127 67 159 60 20 -5 22 -3 16 12 -4 10 -10 26
-12 36 -6 19 -19 23 -25 6z"/>
<path d="M1682 918 c-6 -17 -9 -34 -5 -37 3 -3 8 -1 10 6 6 17 155 -40 163
-62 5 -13 10 -7 22 24 16 41 16 42 -3 36 -24 -8 -149 34 -156 52 -8 21 -18 15
-31 -19z"/>
<path d="M840 360 c-25 -20 -25 -20 -2 -20 21 0 22 -4 22 -65 0 -58 -2 -65
-20 -65 -11 0 -20 -4 -20 -10 0 -5 22 -10 49 -10 28 0 53 5 56 10 3 5 -3 10
-14 10 -20 0 -21 6 -21 85 0 93 -6 100 -50 65z"/>
<path d="M1222 368 c-16 -16 -15 -48 1 -48 7 0 17 10 22 23 13 29 29 25 33 -8
3 -20 -2 -28 -17 -32 -27 -7 -27 -23 -1 -23 16 0 20 -7 20 -35 0 -25 -4 -35
-16 -35 -9 0 -18 9 -21 20 -7 26 -33 26 -33 0 0 -46 81 -50 102 -5 9 19 7 29
-5 49 -10 15 -13 27 -7 31 14 9 13 48 -2 63 -7 7 -24 12 -38 12 -14 0 -31 -5
-38 -12z"/>
<path d="M934 290 c-1 -34 21 -42 29 -10 3 14 14 20 31 20 14 0 26 -1 26 -3 0
-1 -13 -34 -30 -72 -33 -79 -36 -95 -15 -95 8 0 19 16 24 38 6 21 20 64 30 95
l20 57 -57 0 c-56 0 -57 0 -58 -30z"/>
<path d="M1080 290 c0 -34 15 -40 23 -10 3 14 14 20 32 20 18 0 25 -4 22 -12
-59 -134 -66 -158 -44 -158 10 0 68 158 67 183 0 4 -22 7 -50 7 -49 0 -50 -1
-50 -30z"/>
</g>
</svg>
